<?xml version="1.0" encoding="UTF-8" standalone="no"?>
<!DOCTYPE svg PUBLIC "-//W3C//DTD SVG 1.1//EN" "http://www.w3.org/Graphics/SVG/1.1/DTD/svg11.dtd">
<svg width="100%" height="100%" viewBox="0 0 1414 520" version="1.1" xmlns="http://www.w3.org/2000/svg" xmlns:xlink="http://www.w3.org/1999/xlink" xml:space="preserve" xmlns:serif="http://www.serif.com/" style="fill-rule:evenodd;clip-rule:evenodd;stroke-linejoin:round;stroke-miterlimit:2;">
    <g id="Layer_1">
        <g>
            <g>
                <g>
                    <path d="M367.22,378.62C366.32,371.21 361.05,368.07 354.73,367.27C351.09,366.81 347.41,366.23 343.67,366.81C341.57,367.13 341.52,366.85 341.82,364.63C342.48,359.65 343.09,354.67 343.76,349.7C344.35,345.27 344.74,340.8 346.04,336.48C347.46,331.84 347.92,327.01 348.91,322.3C349.58,319.16 349.88,315.83 350.57,312.7C351.58,308.15 352.36,303.54 353.3,298.99C354.66,292.52 356.38,286.1 357.32,279.54C357.92,275.33 358.7,271.17 359.68,267.05C360.73,262.62 360.77,258.03 362.02,253.62C362.99,250.2 363.74,246.66 364.16,243.13C364.61,239.44 365.21,235.81 366.12,232.22C366.46,230.89 366.4,229.59 366.21,228.3C366.05,227.22 365.51,226.26 364.29,225.83C360.84,224.6 357.2,224.96 353.66,224.66C352.63,224.57 351.11,224.35 350.36,224.78C348.6,225.78 346.61,224.51 345.03,225.71C341.59,224.34 337.91,225.26 334.4,224.51C333.56,224.34 332.56,224.34 331.77,224.61C328.38,225.78 324.93,225.83 321.49,225.22C318.04,224.62 314.71,225.47 311.32,225.63C307.37,225.8 305.76,227.34 305.28,231.23C305.02,233.32 305.04,235.41 304.85,237.52C304.8,244.02 305.3,250.22 312.03,253.91C313.75,254.85 315.45,255.72 317.28,255.27C318.89,254.89 320.3,255.57 321.8,255.45C323.68,255.3 323.93,256.59 323.6,257.8C322.65,261.41 322.47,265.14 321.61,268.75C320.89,271.75 320.12,274.71 320.22,277.84C320.25,278.83 319.96,279.8 319.87,280.78C319.51,284.86 318.12,288.73 317.66,292.81C317.11,297.61 316.14,302.38 315.25,307.14C314.35,311.96 313.85,316.93 313.19,321.85C312.58,326.47 311.19,330.93 310.82,335.59C310.38,341.12 309.13,346.56 308.25,352.05C307.31,357.94 306.59,363.88 305.86,369.76C305.17,375.32 303.48,380.62 302.85,386.14C302.51,389.11 302.44,392.12 302.37,395.13C302.34,396.61 303.7,398.02 305.31,398.04C308.59,398.09 311.8,398.81 315.1,398.63C319.22,398.41 323.49,397.66 327.41,398.49C333.43,399.73 339.3,398.71 345.23,398.72C349.94,398.73 354.63,398.1 359.34,398.12C361.56,398.12 363.38,397.19 365.33,396.61C366.27,396.33 366.78,395.35 366.98,394.29C367.89,389.07 367.87,383.89 367.22,378.62ZM311.64,228.96C311.56,229.03 311.55,229.14 311.48,229.2C311.5,229.4 311.41,229.49 311.37,229.63C311.25,229.61 311.24,229.82 311.18,229.9L311.2,229.93C311.02,230.17 310.85,230.33 310.67,230.46C310.68,230.6 310.58,230.56 310.6,230.7C310.6,230.62 310.55,230.68 310.5,230.6L310.46,230.69C310.44,230.68 310.42,230.66 310.41,230.67C310.33,230.71 310.27,230.82 310.19,230.87L310.23,230.9C310.21,230.91 310.17,230.91 310.13,230.86C310.14,230.93 310.08,230.97 310.15,231.09L310.11,231.1C310.18,231.12 310.21,231.15 310.25,231.18C310.24,231.27 310.27,231.38 310.29,231.49L310.37,231.49C310.35,231.49 310.34,231.5 310.32,231.5C310.12,231.52 309.75,231.81 309.68,231.98C309.64,232.12 309.75,232.24 309.71,232.36C309.7,232.37 309.51,232.54 309.57,232.55C309.79,232.59 309.7,232.67 309.64,232.82C309.58,232.95 309.6,233 309.45,233.1C309.37,233.15 309.27,233.19 309.19,233.25C308.86,233.55 308.89,234.15 308.33,234.22C308.07,234.26 307.56,234.22 307.5,233.9C307.48,233.8 307.75,233.09 307.78,233.09C307.66,233.1 307.77,233.14 307.68,233.14C307.7,232.93 307.66,232.65 307.75,232.42C307.77,232.33 307.96,232.3 307.98,232.22L307.99,232.24C308.02,232.23 307.82,232.01 307.92,232.01C307.96,231.94 308.02,231.98 308,231.89C308.07,231.89 308.1,231.89 308.09,231.86C308.08,231.82 308.07,231.79 308.06,231.76C308.07,231.68 308.11,231.61 308.11,231.52C308.01,231.54 307.92,231.44 308.2,231.44C308.23,231.41 308.13,231.36 308.19,231.36C308.14,231.3 308.11,231.23 308.07,231.17C308.13,230.97 308.47,230.91 308.62,230.76L308.62,230.73C308.66,230.74 308.68,230.57 308.71,230.4C308.74,230.24 308.8,230.08 308.86,230.12C308.85,230.1 308.86,230.09 308.84,230.08C308.9,229.98 309.03,229.99 309.08,229.92C309.18,229.75 309.37,229.63 309.49,229.5C309.55,229.51 309.63,229.57 309.64,229.51C309.74,229.34 309.91,229.18 310.09,229.02C310.26,228.91 310.47,228.88 310.62,228.74C310.91,228.67 311.19,228.66 311.49,228.74L311.48,228.71C311.57,228.8 311.53,228.69 311.63,228.8C311.71,228.83 311.6,228.87 311.64,228.96ZM306.82,393.84C306.79,393.91 306.74,393.96 306.68,394.02C306.48,394.2 306.03,394.31 305.76,394.29C305.67,394.28 305.63,394.27 305.56,394.21C305.52,394.18 305.52,394.11 305.49,394.08C305.44,394.05 305.39,394.07 305.34,394.05C305.29,394.02 305.23,394.03 305.17,394C305.05,393.93 305.03,393.87 304.88,393.82C304.75,393.77 304.68,393.78 304.64,393.63C304.59,393.42 304.8,393.15 304.44,393.15C304.4,393.15 304.34,393.15 304.29,393.16C304.21,393.19 304.3,393.03 304.6,392.9C304.01,393.07 304.19,392.84 304.42,392.64C304.4,392.7 304.4,392.76 304.42,392.78C304.49,392.76 304.54,392.74 304.54,392.71C304.46,392.74 304.44,392.72 304.43,392.71C304.41,392.69 304.57,392.64 304.51,392.64C304.54,392.62 304.56,392.62 304.6,392.6C304.64,392.57 304.63,392.58 304.67,392.55C304.66,392.54 304.61,392.56 304.57,392.57C304.55,392.56 304.55,392.55 304.58,392.54C304.87,392.47 304.87,392.18 305.04,391.99C305.19,391.82 305.52,391.65 305.76,391.65C305.9,391.65 306.03,391.68 306.12,391.81C306.16,391.88 306.25,392.16 306.24,392.24C306.24,392.31 306.16,392.35 306.15,392.42C306.13,392.5 306.16,392.7 306.2,392.78C306.23,392.83 306.34,392.95 306.36,392.93C306.38,392.93 306.38,392.93 306.4,392.92C306.43,392.94 306.36,393.01 306.39,393.02C306.47,393.04 306.48,393.13 306.54,393.15C306.51,393.18 306.45,393.23 306.48,393.23C306.86,393.27 306.98,393.57 306.82,393.84ZM308.85,382.61C308.7,382.7 308.47,382.99 308.41,383.15C308.34,383.35 308.44,383.43 308.21,383.55C308.09,383.62 307.95,383.58 307.84,383.63C307.71,383.68 307.75,383.7 307.68,383.76C307.29,384.07 306.88,383.83 306.64,383.48C306.47,383.23 306.45,383.04 306.56,382.75C306.6,382.64 306.78,382.42 306.94,382.56C306.88,382.51 306.81,382.47 306.75,382.41C306.85,382.33 307,382.36 307.1,382.28C307.1,382.27 307.09,382.27 307.09,382.26C307.16,382.27 306.85,381.93 306.97,381.96C306.96,381.96 306.96,381.95 306.94,381.94C306.93,381.9 307.04,381.9 307.03,381.85C307,381.76 307.06,381.68 307.04,381.61C307.09,381.61 307.17,381.62 307.15,381.59C307.1,381.49 307.06,381.39 307.05,381.29C307.05,381.2 307.14,381.15 307.08,381.04C307.16,380.95 307.27,380.85 307.44,380.79L307.41,380.79C307.53,380.8 307.42,380.76 307.55,380.77C307.63,380.77 307.63,380.84 307.73,380.85C307.76,380.9 307.86,380.96 307.87,381C308.05,381.08 308.09,381.16 308.2,381.24C308.12,381.27 308.29,381.37 308.34,381.43L308.37,381.44C308.49,381.61 308.51,381.76 308.49,381.88C308.59,381.96 308.51,381.97 308.61,382.03C308.56,381.99 308.56,382.04 308.47,382L308.51,382.07C308.49,382.06 308.46,382.06 308.46,382.06C308.44,382.11 308.47,382.19 308.43,382.23L308.47,382.24C308.46,382.25 308.44,382.27 308.37,382.24C308.42,382.28 308.4,382.32 308.52,382.38L308.49,382.39C308.55,382.39 308.59,382.41 308.64,382.41C308.68,382.47 308.74,382.54 308.82,382.61C308.85,382.6 308.85,382.6 308.89,382.59C308.87,382.6 308.86,382.6 308.85,382.61ZM349.28,395.21L349.21,395.02L349.4,395.05L349.28,395.21Z" style="fill:rgb(198,231,211);fill-rule:nonzero;"/>
                </g>
                <g>
                    <path d="M279.34,291C278.23,289.34 280.37,289.01 280.14,287.76C279.75,285.63 280.74,283.6 281.09,281.52C282.53,273.09 283.66,264.6 285.07,256.17C285.76,251.98 285.93,247.7 287.23,243.61C286.43,242.89 286.84,242.27 287.39,241.67C288.38,238.53 288.55,235.2 289.36,232.06C290.3,228.4 290.75,224.7 291.39,221.01C291.91,218.02 292.33,215.02 293.01,212.05C293.73,208.93 294.25,205.74 294.68,202.56C295.17,198.96 295.88,195.42 296.62,191.87C297.4,188.09 298.18,184.27 298.66,180.45C299.1,176.94 299.86,173.51 300.5,170.07C301.99,162.05 303.45,154.04 304.9,146.02C305.01,145.4 305.38,144.51 304.78,144.14C303.3,143.24 303.11,141.63 302.29,140.38C301.87,139.73 301.41,139.1 300.57,138.9C298.89,138.49 297.23,137.96 295.53,137.62C290.59,136.63 285.67,135.75 280.6,135.48C276.56,135.25 272.57,134.15 268.53,133.61C265.62,133.23 262.81,133.09 260.24,135.34C258.03,137.25 255.65,139.12 252.89,140.34C251.95,140.76 251.86,141.65 251.51,142.46C250.16,145.5 249.31,148.71 248.58,151.93C247.45,156.93 245.3,161.7 244.76,166.83C244.49,169.38 243.65,171.72 242.87,174.11C242.62,174.88 242.33,175.65 242.09,176.43C241.19,179.27 241.13,182.33 239.96,185.07C238.71,188.02 237.54,191.02 237.32,194.19C237.09,197.52 235,200.15 234.59,203.52C234.07,207.92 232.15,212.19 230.95,216.55C229.8,220.78 228.38,224.93 227.09,229.11C227.21,229.59 226.98,230.2 226.67,230.12C226.66,230.12 226.65,230.12 226.64,230.1C226.63,230.14 226.62,230.19 226.61,230.23C226.62,230.19 226.63,230.14 226.64,230.1C226.3,229.97 226.42,229.4 226.63,229.02C226.96,224.01 226.39,218.97 226.94,213.95C227.13,212.24 227.38,210.48 227.37,208.74C227.36,201.79 227.56,194.85 228.25,187.95C228.74,183.01 228.25,178.04 228.95,173.1C229.16,171.63 229.7,170.13 229.4,168.58C228.69,164.97 229.4,161.38 229.68,157.81C230.03,153.38 231.11,149 231.58,144.57C231.94,141.34 232.01,138.04 229.95,135.12C229.06,133.86 228.23,132.52 227.64,131.1C226.36,127.99 223.89,126.88 220.78,126.4C215.11,125.51 209.46,124.49 203.81,123.46C198.25,122.45 192.7,121.4 187.16,120.33C186.32,120.16 185.6,120.31 184.93,120.72C182.92,121.96 181.12,123.31 180.71,125.9C180.3,128.57 179.87,131.27 179.07,133.85C178.48,135.74 177.67,137.63 177.8,139.54C178.19,145.21 176.1,150.45 175.15,155.87C174.59,159.08 173.55,162.42 173.31,165.58C172.92,170.67 171.59,175.55 170.68,180.48C169.51,186.79 168.88,193.21 167.28,199.46C166.08,204.11 165.2,208.94 164.93,213.73C164.74,217.15 163.14,220.21 163.11,223.59C163.09,226.45 162.9,229.3 162.16,232.07C161.02,236.29 160.5,240.61 159.82,244.92C158.99,250.19 158.12,255.45 157.23,260.71C156.33,265.97 156.18,271.34 155.29,276.61C155.06,277.95 154.57,279.27 154.76,280.78C155.01,282.7 154.89,284.78 154.4,286.66C153.9,288.54 154.9,290.36 153.93,292.3C153.36,293.44 153.9,295.04 155.48,296.23C157.63,297.83 160.05,298.63 162.48,299.03C168.97,300.08 174.09,301.04 180.56,302.17C184.02,302.78 186.01,301.38 187.9,298.98C188.98,297.6 189.08,295.99 189.28,294.37C190.25,286.44 191.06,278.5 192.23,270.6C193.48,262.19 194.11,253.73 194.98,245.3C195.48,240.45 195.51,235.55 196.94,230.83C196.72,228.15 198.37,224.97 199.08,222.36C198.96,222.07 198.75,221.75 198.76,221.46C198.78,220.87 199.13,220.28 199.75,220.47C200.53,220.71 199.93,221.35 199.87,221.82C199.63,224.45 199.39,227.1 199.16,229.74C199.73,230.9 199.08,232.11 199.02,233.22C198.89,235.53 199.54,237.74 199.32,240.04C198.95,243.93 198.75,247.84 198.7,251.77C198.68,254.15 198.68,256.54 198.73,258.94C198.84,263.4 198.22,267.82 198.31,272.31C198.48,280.35 198.68,288.43 197.72,296.46C197.62,297.31 197.78,298.21 197.85,299.08C197.96,300.49 198.98,301.35 200.12,301.66C205.44,303.15 210.89,303.98 216.37,304.53C217.36,304.62 218.25,304.76 219.22,305.04C221.67,305.74 222.96,305.94 225.47,306.4C226,306.5 226.7,306.68 227.07,306.44C229.35,304.96 231.31,303.11 233.21,301.19C233.41,300.98 233.45,300.62 233.54,300.32C235.3,294.65 237.04,288.97 238.82,283.3C239.77,280.29 240.41,277.19 241.33,274.19C242.64,269.92 243.63,265.59 244.78,261.29C245.72,257.82 246.45,254.24 247.58,250.88C248.86,247.13 249.86,243.17 251.67,239.6C251.68,238.64 252.56,237.82 253.78,236.92C254.16,238.48 254.3,239.62 253.11,240.57C252.86,241.31 254.04,241.48 253.85,242.25C252.69,246.89 251.58,251.55 250.65,256.24C249.29,263.19 248,270.17 246.29,277.06C245.56,279.99 245.15,283.11 244.17,285.86C242.59,290.31 242.14,294.93 240.93,299.41C240.37,301.49 241.5,305.81 243.34,306.86C245.29,307.97 247.42,307.49 249.44,307.86C255.52,309 261.43,310.87 267.6,311.59C269.55,311.81 271.39,311.57 273.09,310.92C273.86,310.61 274.33,309.9 274.78,309.25C275.05,308.86 275.43,308.64 275.67,308.21C275.96,307.71 276.35,307.16 276.44,306.58C276.54,305.98 276.53,305.4 276.71,304.79C276.98,303.93 277.34,303.1 277.5,302.2C277.73,300.9 278.27,299.6 278.23,298.31C278.2,297.08 278.45,296.01 278.77,294.86C279.16,293.55 279.88,291.8 279.34,291ZM159.95,264.64C159.55,264.05 159.45,263.28 159.21,262.59C159.91,262.53 160.83,262.18 161.24,262.49C161.68,262.84 161.64,263.8 161.8,264.49C161.25,265.37 160.53,265.5 159.95,264.64ZM160.43,283.34C159.92,285.33 159.13,286.92 158.08,286.86C158.1,286.75 158.13,286.45 158.13,286.31C158.13,286.32 157.81,286.68 157.84,286.52C156.08,285.8 157.56,281.17 157.61,279.32C157.69,276.8 157.69,274.57 157.9,272.24C157.95,271.77 158.19,271.32 158.14,270.83C158.38,270.19 158.71,269.57 159.1,268.98C159.36,268.89 159.13,268.82 159.44,268.73C159.71,268.66 160.97,270.92 161.07,271.24C161.47,272.51 161.15,274.47 160.48,275.63C160.55,275.65 160.7,276.17 161,276.16C161.31,277.26 161.12,280.66 160.43,283.34ZM200.68,206.09C200.31,206.06 200.18,205.77 200.34,205.46C200.4,205.35 200.71,205.27 200.86,205.33C200.98,205.37 201.02,205.63 201.1,205.8C200.97,205.89 200.81,206.1 200.68,206.09ZM199.77,212.45C199.72,212.31 199.77,212.12 199.81,211.96C199.82,211.91 199.96,211.9 200.04,211.88C200.08,212.04 200.12,212.21 200.16,212.38C200.01,212.6 199.83,212.63 199.77,212.45ZM199.58,218.78C198.79,218.7 199.41,218.07 199.39,217.69C199.36,217.18 199.42,216.29 199.75,216.37C200.58,216.59 199.9,217.28 199.87,217.78C199.82,218.14 200.03,218.82 199.58,218.78ZM207.45,211.4C207.63,214.52 206.69,219.26 205.03,219.48C202.75,219.78 200.87,215.14 201.16,213.39C201.46,211.57 202.14,212.1 202.97,210.87C204,209.34 203.46,207.46 206.35,208.42C207.01,208.63 207.36,209.86 207.45,211.4ZM220.78,205.3C220.72,205.29 220.63,205.26 220.54,205.21C220.02,204.92 220.07,204.42 219.76,203.99C219.44,203.55 218.4,203.13 217.86,203.38C217.66,203.46 217.56,203.84 217.32,203.48C217.09,203.13 217.56,202.56 217.79,202.3C218.19,201.83 218.46,201.45 218.76,200.88C218.86,200.7 218.84,200.43 218.93,200.25C219.04,200.05 219.41,199.95 219.61,199.81C219.91,199.59 219.99,199.47 220.05,199.13C220.13,198.66 220.38,198.26 220.5,197.83C220.42,198.11 220.37,198.42 220.31,198.72C220.4,198.37 220.47,197.86 220.81,197.66C220.85,197.86 220.74,198.09 220.78,198.3C220.83,198.58 220.98,198.8 220.98,199.1C220.96,199.5 220.64,199.73 220.64,200.12C220.62,200.98 220.46,201.86 220.34,202.73C220.24,202.81 220.18,203.17 220.07,203.33C220.06,203.37 220.05,203.4 220.04,203.41L220.04,203.95C220.16,204.15 220.37,203.14 220.47,203.2C220.48,203.23 220.48,203.27 220.48,203.3C220.5,203.45 220.54,204.03 220.67,204.2C220.88,204.5 221.21,204.33 221.24,204.75C221.24,205 221.08,205.39 220.78,205.3ZM269.32,141.26C268.66,142.36 267.43,143.42 266.66,143.79C265.96,144.13 264.2,143.88 263.48,143.63C261.6,143 262.64,141.68 263.46,140.76C264.4,139.74 267.09,138.07 268.59,138.54C270.08,139.03 269.98,140.16 269.32,141.26ZM254.94,231.05C255.04,231.16 255.15,231.27 255.2,231.4C255.23,231.47 255.18,231.59 255.13,231.67C254.94,231.94 254.75,231.91 254.73,231.58C254.71,231.42 254.85,231.24 254.94,231.05ZM254.21,235.63C253.84,235.56 254.08,234.89 254.2,234.5C254.14,234.15 254.27,233.73 254.58,233.77C254.82,233.81 254.89,234.29 254.66,234.59C254.6,235 254.56,235.7 254.21,235.63ZM256.1,229.02C256.02,229.14 255.77,229.13 255.59,229.17C255.51,229.02 255.34,228.83 255.37,228.71C255.47,228.39 255.76,228.3 256.02,228.51C256.13,228.59 256.18,228.91 256.1,229.02ZM256.58,226.94C256.4,227.2 256.26,227.16 256.23,226.85C256.22,226.77 256.31,226.69 256.36,226.61C256.42,226.63 256.54,226.63 256.56,226.67C256.6,226.75 256.62,226.88 256.58,226.94ZM261.85,241.29C261.43,243.5 259.62,245.7 257.22,244.35C257.27,243.43 258.1,242.84 258.42,242C258.95,240.57 258.23,238.53 259.85,237.47C260,237.44 260.01,237.58 260.19,237.59C260.26,237.7 260.43,237.78 260.46,237.89C261.76,238.28 262.13,239.79 261.85,241.29Z" style="fill:rgb(255,141,0);fill-rule:nonzero;"/>
                </g>
                <g>
                    <path d="M116.8,380.27C121.89,380.12 126.96,380.22 132.04,380.5C134.08,380.62 136.14,381.1 138.16,380.3C138.44,380.41 138.91,378.87 139.04,380.39C142.33,380.34 145.61,380.27 148.89,380.24C150.38,380.23 151.91,380.49 153.34,380.25C154.89,379.99 156.34,381.09 158.03,380.15C159.19,379.51 160.87,380.27 162.3,380.32C163.54,380.36 164.54,379.5 165.73,379.83C170.06,381.05 174.49,380.03 178.88,380.44C182.87,380.82 186.98,380.21 190.89,380.89C193.78,381.39 196.65,380.27 199.43,381.34C206.68,380.34 214,380.73 221.28,380.61C225.25,380.54 229.28,380.35 233.28,380.65C240.16,381.15 247.07,380.3 253.97,381.13C256.39,381.42 258.97,381.64 261.44,381.29C264.01,380.9 266.56,380.93 269.15,380.81C273.45,380.62 277.75,381.39 282.07,380.27C284.93,379.53 286.54,377.5 286.93,375.28C287.95,369.47 288.8,363.59 288.4,357.62C288.28,355.68 288.1,353.67 288.43,351.79C289.39,346.49 289.04,341.17 289.06,335.85C289.06,334.83 288.63,334.23 287.94,333.62C286.2,332.09 284.21,331.28 281.99,330.58C278.25,329.4 274.47,328.2 270.71,327.42C266.12,326.47 261.52,325.36 256.71,325.18C247.22,324.84 237.93,322.35 228.45,321.7C226.01,321.53 223.79,320.44 221.41,320.31C209.9,319.67 198.6,317.42 187.27,315.57C183.21,314.91 179.17,314.05 175.08,313.37C168.84,312.32 162.57,311.38 156.32,310.49C151.46,309.8 146.59,308.93 141.72,308.3C136.83,307.66 131.91,306.91 127.11,305.65C121.31,304.13 115.18,304.62 109.39,302.77C107.48,302.16 105.61,303.27 104.11,304.7C102.9,305.84 103.24,307.1 103.41,308.6C103.86,312.71 104.6,316.78 104.53,320.98C104.48,324 104.37,327.08 104.9,330.14C105.34,332.65 106.82,334.03 108.88,334.87C110.57,335.56 112.41,336.04 114.21,336.27C120.9,337.13 127.51,338.46 134.17,339.52C136.38,339.87 138.66,340.8 140.82,340.46C143.72,340 146.36,340.51 149.32,341.22C148.11,342.95 148.54,344.8 148.64,346.67C145.98,346.79 143.55,346.01 141.05,345.88C133.19,345.47 125.35,344.97 117.59,343.62C114.61,343.1 112.03,344.21 109.45,345.36C108.28,345.87 107.97,346.86 107.76,348.23C107.02,353.24 107.72,358.29 106.98,363.27C106.81,364.46 106.59,365.69 106.73,366.86C107.08,370 107.87,373.08 107.77,376.26C107.74,377.54 108.25,378.28 109.23,378.97C111.57,380.65 114.21,380.34 116.8,380.27ZM282.86,341.76C282.57,341.61 282.54,341.16 282.48,340.84C282.31,340.11 281.85,339.84 281.48,339.23C281.32,338.95 281.18,338.64 281.02,338.35C280.96,338.24 280.83,338.22 280.79,338.09C280.77,338.04 280.88,337.71 280.82,337.69C280.8,337.68 280.79,337.68 280.77,337.67C280.64,337.68 279.98,337.59 279.93,337.46C279.91,337.47 279.88,337.49 279.85,337.5C279.62,336.81 279.09,336.6 278.59,336.05C278.28,335.7 277.96,335.45 277.72,335.05C277.41,334.49 277.39,334.25 277.88,333.84C278.39,333.41 278.78,333.55 279.38,333.5C279.84,333.48 280.21,333.11 280.68,333.26C281.13,333.4 281.48,333.85 281.89,334.04C282.37,334.25 283.07,334.1 283.49,334.49C283.91,334.91 283.6,335.6 283.91,336.06C284.2,336.49 284.86,336.35 285.25,336.74C285.61,337.08 285.68,337.65 285.4,338.08C285.24,338.33 284.99,338.4 284.85,338.69C284.73,338.96 284.75,339.35 284.75,339.64C284.76,340.04 284.89,340.35 284.65,340.68C284.54,340.82 284.19,341 284.05,341.13C283.75,341.35 283.46,341.8 283.09,341.79C283.01,341.81 282.94,341.8 282.86,341.76ZM209.96,354.93C210.01,355.17 209.62,355.51 209.46,355.77C209.13,355.74 208.73,355.82 208.56,355.66C207.86,354.98 208.11,354.3 209.26,353.9C209.38,353.87 209.88,354.55 209.96,354.93ZM167.34,349.09C167.31,348.9 167.3,349.1 167.28,348.87C167.28,348.75 167.33,348.72 167.34,348.55C167.39,348.46 167.41,348.29 167.45,348.24C167.47,347.81 167.51,347.39 167.52,346.95C167.55,346.68 167.46,346.56 167.77,346.47C168.03,346.38 168.01,346.55 168.22,346.59C168.35,346.61 168.45,346.48 168.53,346.5C168.73,346.54 168.9,346.95 169.11,346.87C169.12,346.85 169.19,346.76 169.22,346.74C169.25,346.72 169.49,347.12 169.49,347.17C169.48,347.28 169.39,347.32 169.34,347.42C169.27,347.57 169.29,347.74 169.27,347.9C169.17,348.35 168.74,348.85 168.38,349.13C167.99,349.45 167.66,349.55 167.35,349.03L167.34,349.09ZM170.95,349.84C170.7,347.27 171.83,344.76 171.5,342.15C171.37,341.08 172.16,340.47 173.19,340.73C179.28,342.24 185.5,343.01 191.66,343.98C200.15,345.33 208.38,348.08 217.02,348.6C218.17,348.67 219.27,349.34 220.4,349.73C221.01,349.78 221.63,349.82 222.23,349.87C222.62,349.81 223.25,349.87 223.23,350.14C223.19,350.52 222.63,350.43 222.26,350.37C221.78,351.37 221.01,351.15 220.21,350.84C214.68,350.88 209.14,351.29 203.6,350.71C203.38,350.68 203.12,350.74 202.94,350.64C201.62,349.85 200.87,352.95 199.09,351.02C198.2,350.05 196.18,350.66 194.69,350.78C193.14,350.91 191.65,350.62 190.13,350.53C188.65,350.45 187.12,350.81 185.68,350.57C180.84,349.78 175.93,350.55 170.95,349.84ZM202.08,357.65C201.56,357.65 201.04,357.63 200.55,357.58C199.52,357.47 196.48,357 195.83,356.05C193.55,352.74 203.35,353.5 204.67,354.55C205.67,355.33 204.81,356.53 205.13,357.12C205.24,357.32 205.31,357.5 205.25,357.7C204.27,357.59 203.17,357.65 202.08,357.65Z" style="fill:rgb(224,99,236);fill-rule:nonzero;"/>
                </g>
                <g>
                    <path d="M450.2,253.26L450.21,253.28C450.21,253.27 450.21,253.26 450.2,253.26Z" style="fill:rgb(198,231,211);fill-rule:nonzero;"/>
                    <path d="M470.01,219.42C470.02,219.42 470.02,219.43 470.02,219.43C470.03,219.42 470.03,219.42 470.03,219.4C470.02,219.42 470.02,219.42 470.01,219.42Z" style="fill:rgb(198,231,211);fill-rule:nonzero;"/>
                    <path d="M498.29,372.85C497.41,370.07 495.92,367.48 495.55,364.49C495.33,362.63 495.51,360.35 494.49,359.04C492.5,356.48 492.78,353.43 492.02,350.69C490.89,346.57 489.53,342.54 488.11,338.53C487.27,336.16 486.7,333.7 486.25,331.31C485.51,327.28 483.76,323.55 483.23,319.48C482.86,316.69 481.23,314.1 480.62,311.46C479.76,307.65 478.37,303.96 477.81,300.05C477.55,298.13 477.37,295.96 476.55,294.31C474.94,291 474.85,287.35 473.47,284C472.89,282.58 471.84,281.12 471.93,279.34C472.04,276.77 471.08,274.37 470.17,272.06C467.99,266.48 467.6,260.82 468.45,254.92C469.17,250 469.56,245.01 469.75,240.05C470,233.13 470.5,226.23 471.35,219.36C470.9,219.39 470.45,219.42 470,219.46L470,219.47C469.99,219.47 469.98,219.48 469.97,219.49C469.92,219.59 469.88,219.69 469.87,219.81C469.87,219.69 469.91,219.59 469.96,219.49L469.95,219.5C469.86,219.63 469.77,219.75 469.68,219.88C469.68,219.8 469.67,219.69 469.72,219.65C469.79,219.58 469.88,219.54 469.96,219.5C469.97,219.49 469.98,219.48 469.99,219.45L470,219.45C470.01,219.44 470.01,219.41 470.02,219.41C470.24,218.16 468.94,216.47 471.1,215.78C471.51,215.31 471.62,214.75 471.74,214.15C472.96,208.5 472.29,202.72 473.25,197.01C474.39,190.19 474.45,183.21 475.14,176.33C475.28,174.91 475.43,173.74 474.25,172.8C473.11,171.91 471.99,171.05 470.33,171.39C465.61,172.38 460.76,172.29 455.99,173.37C452.06,174.26 447.94,174.56 444.02,175.69C437.44,177.58 433.16,182 431.66,188.5C430.61,193.08 430.68,197.89 430.07,202.57C429.42,207.45 429.86,212.36 429.25,217.24C428.6,222.47 428.05,227.72 428.1,232.99C428.16,238.55 427.82,244.09 427.34,249.6C426.23,249.51 426.31,248.65 426.12,247.99C424.54,242.5 424.16,236.79 423.78,231.18C423.31,224.3 422.77,217.45 421.54,210.67C420.59,205.47 420.21,200.19 419.86,194.96C419.57,190.36 418.42,186.3 416.01,182.56C414.48,180.19 411.89,178.39 409.27,178.26C405.8,178.08 402.27,179.17 398.74,179.61C394.54,180.15 390.51,181.56 386.25,181.79C380.99,182.06 380.36,182.65 379.62,187.82C379.51,188.52 379.6,189.24 379.64,189.96C379.86,193.56 380.63,197.08 380.97,200.63C381.33,204.26 382.13,207.87 381.83,211.66C381.63,214.24 382.45,216.98 382.63,219.71C382.79,222.28 383.76,224.74 383.89,227.47C383.98,229.51 383.7,231.76 384.26,233.69C385.09,236.62 385.47,239.57 385.72,242.54C386.41,250.72 386.69,258.94 387.56,267.11C388.07,271.94 388.75,276.82 389.12,281.66C389.37,284.88 389.17,288.23 389.37,291.53C389.7,296.79 389.4,302.12 390,307.32C390.65,312.81 390.97,318.32 391.51,323.8C391.71,325.84 391.19,328 391.64,329.79C392.9,334.9 392.1,340.18 393.46,345.24C393.71,346.14 393.63,347.08 393.55,348.05C393.34,350.77 393.29,353.66 393.8,356.2C394.71,360.7 395.76,365.17 396.47,369.71C396.7,371.24 396.98,372.86 397.69,374.2C398.47,375.64 398.91,377.74 400.48,378.25C402.79,378.99 405.01,380.48 407.72,379.8C409.6,379.31 411.57,379.31 413.49,379.75C416.15,380.37 418.76,379.95 421.41,379.6C423.31,379.35 425.17,378.93 427.13,378.85C431.29,378.7 434.41,376.85 435.7,372.66C435.88,372.09 436.12,371.54 436.16,370.94C436.27,369.12 437.1,367.44 436.48,365.41C436.19,364.46 437.56,362.93 437.19,361.47C436.15,357.19 436.05,352.8 435.75,348.43C435.21,340.13 433.56,331.92 433.5,323.57C433.5,322.62 434.01,321.67 433.5,320.74C431.99,318.01 432.95,315.05 432.75,312.21C432.47,308.14 432.89,303.94 432.01,300.03C431.16,296.24 431.51,292.57 431.23,288.77C432.55,289.09 432.39,290.09 432.55,290.87C433.7,296.43 434.76,302.04 436.21,307.48C437.66,312.99 438.69,318.61 440.33,324.11C442.36,330.94 444.92,337.88 444.43,345.29C444.4,345.61 444.56,346.02 444.76,346.29C447.31,349.47 447.52,353.58 448.57,357.24C449.64,360.96 450.36,364.82 451.73,368.47C453.78,373.96 456.42,378.99 462.86,380.39C464.95,380.85 467.16,380.78 469.18,381.36C471.65,382.06 473.86,380.81 476.26,380.89C482.18,381.11 488.1,381.92 494.03,380.93C497.89,380.28 499.25,378.62 498.83,374.93C498.75,374.15 498.51,373.53 498.29,372.85ZM471.51,195.41C471.58,195.49 471.66,195.56 471.73,195.63C471.65,195.71 471.59,195.78 471.52,195.86C471.44,195.78 471.31,195.71 471.32,195.64C471.31,195.56 471.44,195.49 471.51,195.41ZM382.66,193.87C382.5,193.69 382.32,193.51 382.16,193.34C382.28,193.25 382.42,193.08 382.51,193.11C382.63,193.15 382.71,193.33 382.81,193.44C382.75,193.58 382.7,193.72 382.66,193.87ZM388.06,194.91C387.95,194.7 387.87,194.47 387.81,194.3C387.75,194.11 387.69,193.69 387.59,193.55C387.4,193.25 386.96,193.16 386.68,192.96C386.38,192.71 386.32,192.52 386.15,192.18C385.94,191.72 385.46,191.39 385.5,190.85C385.54,189.66 387.57,190.11 388.32,190.01C388.64,189.96 389.01,189.8 389.31,189.64C389.46,189.56 389.77,189.23 389.94,189.24C390.49,189.27 391.26,190.67 391.36,191.13C391.45,191.52 391.6,191.73 391.78,192.01C392.09,192.56 391.83,193.13 391.63,193.68C391.19,194.9 389.84,194.09 389.2,194.79C388.98,195.01 388.97,195.35 388.6,195.34C388.36,195.33 388.18,195.13 388.06,194.91ZM409.13,374.41C409.14,374.81 409.01,375.17 408.67,375.44C407.57,376.32 407.3,375.11 406.32,374.85C405.76,374.7 405.46,375.12 405.11,374.51C404.9,374.11 405.35,372.9 405.55,372.5C405.98,371.64 406.32,370.9 407.41,370.82C406.82,370.87 408.15,372.47 408.19,372.52C408.72,373.09 409.12,373.53 409.13,374.41ZM396.9,254.93C396.93,255.1 396.99,255.29 396.97,255.49C396.95,255.71 396.91,255.92 396.89,256.12C396.89,256.32 396.74,256.43 396.67,256.59C396.62,256.73 396.64,256.79 396.68,256.91C396.7,257.02 396.76,257.22 396.67,257.31C396.55,257.44 396.5,257.3 396.41,257.24C396.34,257.19 396.27,257.17 396.19,257.14C396.05,257.11 396.01,257.11 395.93,256.96C395.81,256.69 395.89,256.34 395.82,256.04C395.75,255.7 395.73,255.43 395.79,255.09C395.83,254.86 395.8,254.53 396.02,254.38C396.16,254.27 396.59,254.09 396.74,254.24C396.89,254.39 396.84,254.69 396.88,254.87C396.89,254.9 396.89,254.91 396.9,254.93ZM405.86,277.61C405.5,277.49 405.15,277.47 404.76,277.46C404.5,277.46 404.06,277.41 403.81,277.32C403.62,277.27 403.51,277.1 403.34,277.01C403.03,276.84 402.64,276.78 402.38,276.53C402.13,276.3 402.38,276.1 402.39,275.82C402.38,275.54 402.28,275.16 402.71,275.21C403.1,275.24 403.4,275.63 403.8,275.5C403.5,275.29 404.07,275.07 404.24,274.96C404.49,274.78 405.07,274.62 405.24,274.4C405.38,274.22 405.25,274.04 405.5,273.87C405.83,273.65 406.11,273.62 406.29,273.26C406.37,273.08 406.37,273.02 406.56,272.92C406.69,272.82 406.87,272.77 406.96,272.61C406.98,272.54 406.96,272.38 406.99,272.3C407.17,271.86 407.78,271.53 408.22,271.39C408.63,271.26 409.13,271.26 409.53,271.37C409.63,271.38 410.2,271.56 410.63,272.05C411.07,272.58 411.19,273.15 411.16,273.75C411.16,273.96 411.12,274.19 411.09,274.42C411.03,274.76 410.99,275.03 410.64,275.18C410.35,275.32 410.12,275.24 409.83,275.24C409.57,275.26 409.29,275.33 409.03,275.43C408.83,275.51 408.5,275.67 408.6,275.93C408.67,276.12 408.98,276.18 409.11,276.33C409.29,276.52 409.23,276.75 409.14,276.96C408.88,277.02 406.89,277.03 407.41,277.67C406.91,277.97 406.36,277.76 405.86,277.61ZM418.92,283.91C418.79,284.07 418.28,283.99 418.11,284.08C417.86,284.22 417.64,284.54 417.42,284.18C417.32,283.99 417.34,283.77 417.25,283.59C417.17,283.43 416.99,283.45 416.86,283.37C416.69,283.27 416.69,283.13 416.66,282.94C416.63,282.74 416.68,282.56 416.7,282.36C416.7,282.17 416.65,281.96 416.72,281.79C416.82,281.57 417.07,281.6 417.2,281.4C417.3,281.24 417.25,280.93 417.49,280.94C417.78,280.93 418.15,281.49 418.28,281.71C418.32,281.78 418.55,282.13 418.63,282.15C418.62,282.15 418.89,282.47 418.91,282.55C418.96,282.75 418.85,282.91 418.81,283.09C418.78,283.24 418.8,283.41 418.82,283.57C418.84,283.62 418.94,283.83 418.92,283.91ZM429.82,257.24C429.59,257.38 429.3,257.35 429.04,257.42C428.76,257.5 428.5,257.68 428.22,257.77C427.72,257.94 427.03,258.13 426.54,257.83C426.15,257.55 426.34,257.33 426.26,256.87C426.17,256.4 425.98,256.05 426.03,255.56C426.15,254.23 427.26,255.02 427.94,255.31C428.48,255.52 429.08,255.63 429.59,255.93C429.91,256.13 430.21,256.52 430.05,256.94C430,257.09 429.92,257.17 429.82,257.24ZM465.66,366.8C465.61,366.94 465.47,367.05 465.23,367.07C465.23,367.07 465.3,367.09 465.32,367.09C465.1,367.2 464.96,367.21 464.9,367.48C464.84,367.74 464.93,367.91 464.77,368.17C464.56,368.53 464.56,368.61 464.7,368.97C464.77,369.17 464.87,369.42 464.87,369.65C464.86,370.09 464.43,370.09 464.75,370.57C464.99,370.88 464.91,371.27 465.01,371.65C465.1,371.98 465.42,372.11 465.54,372.43C465.57,372.49 465.57,372.52 465.58,372.62L464.51,372.73C464.03,372.78 463.52,372.78 463.05,372.91C462.67,373 462.3,372.98 461.91,373.03C461.55,373.07 461.01,373.34 460.65,373.22C460.23,373.1 460.43,372.62 460.59,372.38C460.74,372.2 461.03,372.07 460.96,371.79C460.91,371.56 460.63,371.47 460.42,371.49C460.24,371.51 459.99,371.63 459.84,371.56C459.32,371.33 459.88,370.46 460.1,370.2C460.33,369.89 460.25,369.68 459.99,369.41C459.75,369.15 459.76,369.19 459.79,368.88C459.83,368.76 459.74,368.67 459.79,368.53C459.85,368.39 459.98,368.29 460.1,368.23C460.31,368.09 460.59,368.03 460.83,367.92C461.07,367.82 461.29,367.64 461.51,367.49C461.62,367.42 461.85,367.32 461.89,367.19C461.92,367.11 461.82,366.82 461.77,366.89C461.87,366.7 462.12,366.75 462.29,366.68C462.51,366.57 462.54,366.39 462.73,366.29C462.93,366.21 463.14,366.25 463.32,366.14C463.55,366.04 463.72,365.97 463.95,365.92C464.37,365.83 465.93,365.96 465.66,366.8ZM455.91,250.6C455.9,250.63 455.89,250.67 455.87,250.71C455.71,251.56 455.25,252.26 455.03,253.12C454.85,253.9 454.59,254.63 454.53,255.45C453.36,255.71 452.67,256.12 451.38,255.83C450.5,255.61 449.64,255.68 448.8,255.49C448.24,255.33 447.98,255 447.78,254.48C447.51,253.71 447.66,253.71 448.18,253.23C448.42,252.99 448.62,252.65 448.88,252.45C449.77,251.76 451.4,251.74 451.8,250.57C452.84,250.52 456.45,247.6 455.91,250.6ZM471.12,371.19C471.02,371.35 470.69,371.48 470.6,371.53C470.34,371.7 470.46,371.65 470.36,371.86C470.29,372 470.29,372.03 470.23,372.13C470.1,372.31 469.72,372.8 470.02,372.89C470.21,372.94 469.76,373.16 469.69,373.22C469.39,373.47 469.65,373.65 469.52,373.92C469.41,374.2 468.78,374.33 468.51,374.3C468.22,374.27 467.77,374.15 467.69,373.81C467.61,373.53 467.29,372.14 466.85,372.34C467.01,372.18 467.24,371.99 467.36,371.79C467.47,371.59 467.57,371.04 467.35,370.91C467.56,370.84 467.82,370.91 468.03,370.98C467.91,370.96 467.38,370.72 467.59,370.59C467.71,370.5 468.04,370.67 468.17,370.69C468.69,370.76 468.98,370.51 469.45,370.4C469.77,370.32 470.01,370.49 470.3,370.5C470.48,370.5 470.83,370.4 470.94,370.6C471,370.68 470.95,370.78 470.98,370.86C471.01,370.92 471.09,370.98 471.12,371.06C471.16,371.1 471.14,371.15 471.12,371.19ZM476.04,373.7C476.05,373.75 475.88,373.79 475.83,373.81C475.85,373.81 475.87,373.82 475.88,373.82C475.71,373.79 475.57,374.12 475.56,374.24C475.57,374.44 475.52,374.54 475.39,374.71C475.28,374.85 475.35,375.02 475.27,375.16C475.27,375.46 475.22,375.56 475.18,375.76C475.13,375.66 475.07,375.95 474.99,376.04L474.98,376.09C474.79,376.31 474.49,376.32 474.28,376.23C474.14,376.35 474.13,376.22 473.97,376.31C474.06,376.28 473.98,376.22 474.08,376.12L473.96,376.12C473.98,376.09 474,376.06 473.99,376.06C473.95,375.98 473.77,375.95 473.76,375.86L473.71,375.91C473.71,375.87 473.71,375.84 473.8,375.77C473.71,375.8 473.68,375.74 473.48,375.83L473.51,375.77C473.43,375.85 473.38,375.89 473.32,375.95C473.21,375.93 473.05,375.91 472.88,375.9C472.86,375.96 472.86,375.96 472.84,376.01C472.84,375.98 472.85,375.95 472.84,375.93C472.86,375.69 472.9,375.4 472.95,375.26C473.07,375.01 473.24,374.87 472.82,374.81C472.67,374.79 472.56,374.79 472.59,374.61C472.61,374.46 472.76,374.42 472.87,374.36C473.08,374.27 473.36,374.22 473.55,374.07C473.76,373.9 473.85,373.69 474.11,373.58C474.27,373.5 474.39,373.45 474.58,373.48C474.74,373.5 475.36,373.41 475.51,373.39C475.65,373.36 475.36,373.36 475.51,373.39C475.61,373.4 476.05,373.64 476.04,373.7ZM484.36,331.85C484.08,331.71 483.81,331.57 483.53,331.42C483.63,331.26 483.69,331.02 483.84,330.95C484.15,330.81 484.48,330.85 484.61,331.28C484.53,331.46 484.45,331.66 484.36,331.85ZM495.2,379.24C495.14,379.67 494.71,379.74 494.23,379.5C493.31,379.38 492.68,378.84 492.97,377.99C493.24,377.26 493.83,377.55 494.13,378.17C494.76,378.26 495.33,378.46 495.2,379.24Z" style="fill:rgb(0,173,216);fill-rule:nonzero;"/>
                    <path d="M474.37,374.47C474.37,374.48 474.37,374.47 474.38,374.46C474.38,374.46 474.37,374.46 474.37,374.47Z" style="fill:rgb(198,231,211);fill-rule:nonzero;"/>
                </g>
            </g>
        </g>
        <g>
            <path d="M569.27,311.56L597.42,213.04L624.16,213.04L652.17,311.56L636.55,311.56L630.08,288.34L591.52,288.34L585.05,311.56L569.27,311.56ZM595.31,274.26L626.27,274.26L611.91,222.47L609.66,222.47L595.31,274.26Z" style="fill:rgb(198,231,211);fill-rule:nonzero;"/>
            <path d="M671.59,311.56L671.59,242.18L685.8,242.18L685.8,250.34L688.05,250.34C689.36,247.9 691.47,245.74 694.38,243.87C697.29,241.99 701.23,241.05 706.2,241.05C711.36,241.05 715.51,242.11 718.66,244.22C721.8,246.33 724.17,249.03 725.77,252.31L728.02,252.31C729.61,249.12 731.94,246.45 734.99,244.29C738.04,242.13 742.38,241.05 748.01,241.05C752.51,241.05 756.5,241.96 759.97,243.79C763.44,245.62 766.21,248.34 768.27,251.95C770.33,255.56 771.37,260.04 771.37,265.39L771.37,311.55L756.87,311.55L756.87,266.51C756.87,262.29 755.72,259.03 753.42,256.73C751.12,254.43 747.86,253.28 743.64,253.28C739.14,253.28 735.52,254.74 732.8,257.64C730.08,260.55 728.72,264.73 728.72,270.16L728.72,311.54L714.22,311.54L714.22,266.5C714.22,262.28 713.07,259.02 710.77,256.72C708.47,254.42 705.21,253.27 700.99,253.27C696.49,253.27 692.87,254.73 690.15,257.63C687.43,260.54 686.07,264.72 686.07,270.15L686.07,311.53L671.59,311.53L671.59,311.56Z" style="fill:rgb(198,231,211);fill-rule:nonzero;"/>
            <path d="M819.36,313.53C814.39,313.53 809.95,312.69 806.06,311C802.17,309.31 799.07,306.83 796.77,303.54C794.47,300.26 793.32,296.27 793.32,291.58C793.32,286.8 794.47,282.83 796.77,279.69C799.07,276.55 802.21,274.18 806.2,272.58C810.19,270.99 814.72,270.19 819.78,270.19L840.89,270.19L840.89,265.69C840.89,261.66 839.67,258.42 837.23,255.98C834.79,253.54 831.04,252.32 825.97,252.32C821,252.32 817.2,253.49 814.57,255.84C811.94,258.19 810.21,261.24 809.36,264.99L795.85,260.63C796.98,256.88 798.78,253.48 801.27,250.43C803.76,247.38 807.06,244.92 811.19,243.04C815.32,241.16 820.29,240.23 826.11,240.23C835.12,240.23 842.2,242.53 847.36,247.13C852.52,251.73 855.1,258.25 855.1,266.69L855.1,295.26C855.1,298.07 856.41,299.48 859.04,299.48L864.95,299.48L864.95,311.58L854.11,311.58C850.82,311.58 848.15,310.74 846.09,309.05C844.03,307.36 842.99,305.06 842.99,302.15L842.99,301.73L840.88,301.73C840.13,303.14 839,304.78 837.5,306.66C836,308.54 833.79,310.16 830.89,311.52C827.99,312.85 824.15,313.53 819.36,313.53ZM821.47,301.57C827.29,301.57 831.98,299.9 835.54,296.57C839.1,293.24 840.89,288.67 840.89,282.85L840.89,281.44L820.62,281.44C816.77,281.44 813.68,282.26 811.33,283.9C808.98,285.54 807.81,287.96 807.81,291.15C807.81,294.34 809.03,296.87 811.47,298.75C813.92,300.63 817.25,301.57 821.47,301.57Z" style="fill:rgb(198,231,211);fill-rule:nonzero;"/>
            <path d="M881.85,311.56L881.85,293.83L922.8,256.39L922.8,254.42L883.25,254.42L883.25,242.18L938.56,242.18L938.56,260.05L897.46,297.49L897.46,299.32L939.68,299.32L939.68,311.56L881.85,311.56Z" style="fill:rgb(198,231,211);fill-rule:nonzero;"/>
            <path d="M970.66,232.74C967.85,232.74 965.48,231.83 963.55,230C961.63,228.17 960.66,225.8 960.66,222.89C960.66,219.98 961.62,217.61 963.55,215.78C965.47,213.95 967.84,213.04 970.66,213.04C973.57,213.04 975.96,213.95 977.84,215.78C979.72,217.61 980.66,219.98 980.66,222.89C980.66,225.8 979.72,228.17 977.84,230C975.96,231.83 973.56,232.74 970.66,232.74ZM963.34,311.56L963.34,242.18L977.84,242.18L977.84,311.56L963.34,311.56Z" style="fill:rgb(198,231,211);fill-rule:nonzero;"/>
            <path d="M1005,311.56L1005,242.18L1019.21,242.18L1019.21,252.59L1021.46,252.59C1022.77,249.77 1025.12,247.15 1028.5,244.71C1031.88,242.27 1036.9,241.05 1043.56,241.05C1048.81,241.05 1053.48,242.22 1057.56,244.57C1061.64,246.92 1064.85,250.22 1067.2,254.49C1069.54,258.76 1070.72,263.9 1070.72,269.9L1070.72,311.56L1056.22,311.56L1056.22,271.03C1056.22,265.03 1054.72,260.59 1051.72,257.73C1048.72,254.87 1044.59,253.44 1039.34,253.44C1033.33,253.44 1028.52,255.41 1024.91,259.35C1021.3,263.29 1019.49,269.01 1019.49,276.52L1019.49,311.56L1005,311.56Z" style="fill:rgb(198,231,211);fill-rule:nonzero;"/>
            <path d="M1097.18,311.56L1097.18,213.04L1111.68,213.04L1111.68,269.19L1113.93,269.19L1141.23,242.17L1160.51,242.17L1125.47,275.81L1161.64,311.56L1142.5,311.56L1113.93,282.71L1111.68,282.71L1111.68,311.56L1097.18,311.56Z" style="fill:rgb(198,231,211);fill-rule:nonzero;"/>
        </g>
        <g>
            <path d="M1024.3,382.67C1018.96,382.67 1014.45,381.44 1010.78,378.97C1007.11,376.5 1004.89,372.6 1004.13,367.26L1010.73,365.76C1011.2,368.58 1012.08,370.79 1013.37,372.41C1014.66,374.03 1016.26,375.17 1018.17,375.84C1020.08,376.52 1022.12,376.85 1024.29,376.85C1027.52,376.85 1030.07,376.2 1031.95,374.91C1033.83,373.62 1034.77,371.89 1034.77,369.71C1034.77,367.48 1033.87,365.91 1032.08,365C1030.29,364.09 1027.84,363.34 1024.73,362.75L1021.12,362.13C1018.36,361.66 1015.84,360.93 1013.55,359.93C1011.26,358.93 1009.44,357.58 1008.09,355.88C1006.74,354.18 1006.07,352.04 1006.07,349.45C1006.07,345.57 1007.57,342.55 1010.56,340.38C1013.55,338.21 1017.52,337.12 1022.45,337.12C1027.32,337.12 1031.27,338.22 1034.29,340.42C1037.31,342.62 1039.27,345.72 1040.15,349.71L1033.63,351.38C1033.1,348.27 1031.84,346.08 1029.84,344.82C1027.84,343.56 1025.38,342.93 1022.44,342.93C1019.5,342.93 1017.18,343.47 1015.48,344.56C1013.78,345.65 1012.93,347.25 1012.93,349.36C1012.93,351.42 1013.74,352.93 1015.35,353.9C1016.96,354.87 1019.12,355.59 1021.82,356.06L1025.43,356.68C1028.48,357.21 1031.23,357.93 1033.66,358.84C1036.1,359.75 1038.03,361.06 1039.47,362.76C1040.91,364.46 1041.63,366.69 1041.63,369.45C1041.63,373.68 1040.06,376.94 1036.92,379.22C1033.79,381.53 1029.58,382.67 1024.3,382.67Z" style="fill:rgb(198,231,211);fill-rule:nonzero;"/>
            <path d="M1069.12,381.44C1066.65,381.44 1064.76,380.77 1063.44,379.41C1062.12,378.06 1061.46,376.21 1061.46,373.86L1061.46,344.45L1048.51,344.45L1048.51,338.37L1061.46,338.37L1061.46,323.05L1068.42,323.05L1068.42,338.37L1082.51,338.37L1082.51,344.45L1068.42,344.45L1068.42,372.8C1068.42,374.56 1069.27,375.44 1070.97,375.44L1080.57,375.44L1080.57,381.43L1069.12,381.43L1069.12,381.44Z" style="fill:rgb(198,231,211);fill-rule:nonzero;"/>
            <path d="M1111.13,382.23C1108.02,382.23 1105.16,381.55 1102.54,380.2C1099.93,378.85 1097.87,376.84 1096.38,374.17C1094.88,371.5 1094.13,368.26 1094.13,364.44L1094.13,338.37L1101.09,338.37L1101.09,363.91C1101.09,368.2 1102.16,371.31 1104.3,373.24C1106.44,375.18 1109.33,376.15 1112.97,376.15C1117.08,376.15 1120.46,374.8 1123.1,372.1C1125.74,369.4 1127.06,365.38 1127.06,360.04L1127.06,338.38L1134.02,338.38L1134.02,381.44L1127.24,381.44L1127.24,374.13L1126.01,374.13C1125.07,376.19 1123.46,378.05 1121.17,379.72C1118.87,381.4 1115.53,382.23 1111.13,382.23Z" style="fill:rgb(198,231,211);fill-rule:nonzero;"/>
            <path d="M1167.66,382.67C1163.96,382.67 1160.56,381.79 1157.45,380.03C1154.34,378.27 1151.87,375.71 1150.05,372.37C1148.23,369.02 1147.32,365.06 1147.32,360.48L1147.32,359.34C1147.32,354.76 1148.23,350.81 1150.05,347.5C1151.87,344.18 1154.32,341.63 1157.4,339.84C1160.48,338.05 1163.9,337.15 1167.66,337.15C1170.65,337.15 1173.19,337.55 1175.28,338.34C1177.36,339.13 1179.05,340.13 1180.34,341.33C1181.63,342.53 1182.63,343.81 1183.33,345.16L1184.56,345.16L1184.56,319.8L1191.52,319.8L1191.52,381.44L1184.74,381.44L1184.74,374.31L1183.51,374.31C1182.34,376.48 1180.52,378.42 1178.05,380.12C1175.58,381.82 1172.12,382.67 1167.66,382.67ZM1169.51,376.51C1173.97,376.51 1177.6,375.09 1180.39,372.24C1183.18,369.39 1184.57,365.42 1184.57,360.31L1184.57,359.52C1184.57,354.41 1183.18,350.44 1180.39,347.59C1177.6,344.74 1173.98,343.32 1169.51,343.32C1165.11,343.32 1161.48,344.74 1158.63,347.59C1155.78,350.44 1154.36,354.41 1154.36,359.52L1154.36,360.31C1154.36,365.42 1155.78,369.4 1158.63,372.24C1161.48,375.09 1165.11,376.51 1169.51,376.51Z" style="fill:rgb(198,231,211);fill-rule:nonzero;"/>
            <path d="M1210.54,331.69C1209.01,331.69 1207.74,331.19 1206.71,330.19C1205.68,329.19 1205.17,327.93 1205.17,326.4C1205.17,324.81 1205.68,323.52 1206.71,322.52C1207.74,321.52 1209.01,321.02 1210.54,321.02C1212.07,321.02 1213.33,321.52 1214.33,322.52C1215.33,323.52 1215.83,324.81 1215.83,326.4C1215.83,327.93 1215.33,329.19 1214.33,330.19C1213.33,331.19 1212.07,331.69 1210.54,331.69ZM1207.02,381.44L1207.02,338.38L1213.98,338.38L1213.98,381.44L1207.02,381.44Z" style="fill:rgb(198,231,211);fill-rule:nonzero;"/>
            <path d="M1249.38,382.67C1245.03,382.67 1241.2,381.76 1237.89,379.94C1234.57,378.12 1231.99,375.55 1230.14,372.24C1228.29,368.92 1227.37,365.01 1227.37,360.48L1227.37,359.34C1227.37,354.88 1228.29,350.97 1230.14,347.63C1231.99,344.28 1234.57,341.7 1237.89,339.88C1241.21,338.06 1245.04,337.15 1249.38,337.15C1253.72,337.15 1257.55,338.06 1260.87,339.88C1264.19,341.7 1266.77,344.28 1268.62,347.63C1270.47,350.98 1271.39,354.88 1271.39,359.34L1271.39,360.48C1271.39,365 1270.46,368.92 1268.62,372.24C1266.77,375.56 1264.19,378.13 1260.87,379.94C1257.55,381.76 1253.72,382.67 1249.38,382.67ZM1249.38,376.42C1253.96,376.42 1257.61,374.97 1260.34,372.06C1263.07,369.15 1264.43,365.24 1264.43,360.3L1264.43,359.51C1264.43,354.58 1263.06,350.66 1260.34,347.75C1257.61,344.84 1253.96,343.39 1249.38,343.39C1244.86,343.39 1241.22,344.84 1238.46,347.75C1235.7,350.66 1234.32,354.57 1234.32,359.51L1234.32,360.3C1234.32,365.23 1235.7,369.15 1238.46,372.06C1241.22,374.97 1244.86,376.42 1249.38,376.42Z" style="fill:rgb(198,231,211);fill-rule:nonzero;"/>
            <path d="M1287.95,382.67C1286.25,382.67 1284.82,382.11 1283.68,381C1282.54,379.89 1281.96,378.45 1281.96,376.68C1281.96,374.92 1282.53,373.48 1283.68,372.37C1284.83,371.26 1286.25,370.7 1287.95,370.7C1289.71,370.7 1291.15,371.26 1292.27,372.37C1293.38,373.49 1293.94,374.92 1293.94,376.68C1293.94,378.44 1293.38,379.88 1292.27,381C1291.15,382.12 1289.71,382.67 1287.95,382.67Z" style="fill:rgb(198,231,211);fill-rule:nonzero;"/>
        </g>
    </g>
</svg>
